<?xml version="1.0" encoding="UTF-8" standalone="no"?>
<!-- Created with Inkscape (http://www.inkscape.org/) -->

<svg
   width="53.937mm"
   height="53.936996mm"
   viewBox="0 0 53.937 53.936996"
   version="1.1"
   id="svg5"
   inkscape:version="1.3.2 (091e20e, 2023-11-25, custom)"
   sodipodi:docname="PILLOW.svg"
   xmlns:inkscape="http://www.inkscape.org/namespaces/inkscape"
   xmlns:sodipodi="http://sodipodi.sourceforge.net/DTD/sodipodi-0.dtd"
   xmlns="http://www.w3.org/2000/svg"
   xmlns:svg="http://www.w3.org/2000/svg">
  <sodipodi:namedview
     id="namedview7"
     pagecolor="#505050"
     bordercolor="#eeeeee"
     borderopacity="1"
     inkscape:pageshadow="0"
     inkscape:pageopacity="0"
     inkscape:pagecheckerboard="0"
     inkscape:document-units="mm"
     showgrid="false"
     inkscape:zoom="1.4142136"
     inkscape:cx="106.77312"
     inkscape:cy="190.56528"
     inkscape:window-width="1920"
     inkscape:window-height="1017"
     inkscape:window-x="1912"
     inkscape:window-y="-8"
     inkscape:window-maximized="1"
     inkscape:current-layer="layer1"
     width="53.937mm"
     inkscape:showpageshadow="0"
     inkscape:deskcolor="#d1d1d1" />
  <defs
     id="defs2" />
  <g
     inkscape:label="Layer 1"
     inkscape:groupmode="layer"
     id="layer1">
    <path
       id="path3097-1-2-7"
       style="fill:#ffffff;stroke:#000000;stroke-width:0.999998;stroke-linecap:butt;stroke-linejoin:miter;stroke-miterlimit:4;stroke-dasharray:none;stroke-opacity:1;paint-order:normal"
       d="m 1.3500886,7.7837565 c 0,-2.2549898 -1.48243809,-5.1884523 -0.50958066,-6.7449904 C 1.8133555,-0.51776193 5.2431526,1.7934579 7.4651557,1.7934579 H 26.9685 46.471846 c 2.222003,0 5.65179,-2.31120992 6.624647,-0.7546818 0.972848,1.5565281 -0.50958,4.4899906 -0.50958,6.7449804 V 26.968491 46.15325 c 0,2.254971 1.482438,5.188434 0.50958,6.744981 C 52.123636,54.45476 48.693849,52.14354 46.471846,52.14354 H 26.9685 7.4651557 c -2.2220031,0 -5.6517903,2.31121 -6.62464776,0.754682 C -0.13233958,51.341684 1.3500886,48.408221 1.3500886,46.15325 V 26.968491 Z"
       sodipodi:nodetypes="ssscssscssscssscs"
       inkscape:export-filename="..\Year 2\BS2202 - Object Oriented Programming\FinalProject\src\main\java\org\Assets\Cushions\LargeRegular.png"
       inkscape:export-xdpi="376.73483"
       inkscape:export-ydpi="376.73483" />
  </g>
</svg>
